<svg width="546" height="708" viewBox="0 0 546 708" fill="none" xmlns="http://www.w3.org/2000/svg">
<path fill-rule="evenodd" clip-rule="evenodd" d="M374.406 7.56967C375.749 3.65155 380.015 1.56459 383.933 2.90833C476.469 34.6438 543 122.405 543 225.725C543 355.789 437.563 461.225 307.5 461.225C177.437 461.225 72 355.789 72 225.725C72 123.176 137.543 35.9534 229.001 3.6278C232.906 2.24745 237.191 4.29438 238.571 8.19975C239.952 12.1051 237.905 16.39 233.999 17.7704C148.348 48.044 87 129.73 87 225.725C87 347.504 185.721 446.225 307.5 446.225C429.279 446.225 528 347.504 528 225.725C528 129.009 465.727 46.8174 379.067 17.0971C375.149 15.7534 373.062 11.4878 374.406 7.56967Z" fill="#ECECEC"/>
<path fill-rule="evenodd" clip-rule="evenodd" d="M373.343 7.24523C374.866 2.80469 379.7 0.439479 384.141 1.96238C477.068 33.8322 543.883 121.965 543.883 225.725C543.883 356.341 437.999 462.225 307.383 462.225C211.428 462.225 128.838 405.081 91.754 323.002C89.8211 318.724 91.7222 313.689 96.0002 311.757C100.278 309.824 105.313 311.725 107.246 316.003C141.681 392.217 218.351 445.225 307.383 445.225C428.61 445.225 526.883 346.952 526.883 225.725C526.883 129.449 464.894 47.6289 378.626 18.043C374.185 16.5201 371.82 11.6858 373.343 7.24523Z" fill="#70A84B"/>
<path fill-rule="evenodd" clip-rule="evenodd" d="M372.041 6.75866C373.832 1.5345 379.52 -1.2481 384.744 0.543543C478.259 32.6149 545.5 121.305 545.5 225.725C545.5 295.141 515.77 357.627 468.378 401.119C464.309 404.853 457.983 404.582 454.249 400.513C450.515 396.443 450.786 390.118 454.855 386.383C498.293 346.52 525.5 289.307 525.5 225.725C525.5 130.109 463.936 48.8463 378.256 19.4619C373.032 17.6703 370.249 11.9828 372.041 6.75866Z" fill="#FCD329"/>
<path fill-rule="evenodd" clip-rule="evenodd" d="M10.5 225C10.5 217.268 16.768 211 24.5 211H64.5V215H24.5C18.9772 215 14.5 219.477 14.5 225V593.5H41.5V597.5H14.5V637.5H10.5V225ZM10.5 666.5V679H14.5V666.5H25V662.5H14.5V652H10.5V662.5H0V666.5H10.5ZM14.5 683V694C14.5 699.523 18.9772 704 24.5 704H31V708H24.5C16.768 708 10.5 701.732 10.5 694V683H14.5Z" fill="#B1B1B1"/>
</svg>
